<svg xmlns="http://www.w3.org/2000/svg" viewBox="0 0 128 128" role="img" aria-label="Modulo Frota">
  <defs>
    <linearGradient id="bg" x1="16" x2="112" y1="12" y2="118" gradientUnits="userSpaceOnUse">
      <stop stop-color="#06251F"/>
      <stop offset=".48" stop-color="#0B3346"/>
      <stop offset="1" stop-color="#111C42"/>
    </linearGradient>
    <linearGradient id="metal" x1="24" x2="106" y1="38" y2="86" gradientUnits="userSpaceOnUse">
      <stop stop-color="#5DF59A"/>
      <stop offset=".42" stop-color="#19D3B2"/>
      <stop offset="1" stop-color="#3B82F6"/>
    </linearGradient>
    <filter id="glow" x="-20%" y="-20%" width="140%" height="140%">
      <feGaussianBlur stdDeviation="3.5" result="blur"/>
      <feColorMatrix in="blur" values="0 0 0 0 0.05 0 0 0 0 0.95 0 0 0 0 0.58 0 0 0 .65 0"/>
      <feBlend in="SourceGraphic"/>
    </filter>
  </defs>
  <rect x="8" y="8" width="112" height="112" rx="28" fill="url(#bg)"/>
  <path d="M29 84h70" stroke="#4ADE80" stroke-width="4" stroke-linecap="round" opacity=".55"/>
  <path filter="url(#glow)" fill="url(#metal)" d="M28 73.5 35.8 50c1.4-4.3 5.4-7.2 9.9-7.2h36.6c4.5 0 8.5 2.9 9.9 7.2L100 73.5v16.8a5.7 5.7 0 0 1-5.7 5.7h-4.5a5.7 5.7 0 0 1-5.7-5.7v-2.1H43.9v2.1a5.7 5.7 0 0 1-5.7 5.7h-4.5a5.7 5.7 0 0 1-5.7-5.7V73.5Zm18.3-21.4-5 15.1h45.4l-5-15.1a3.6 3.6 0 0 0-3.4-2.5H49.7a3.6 3.6 0 0 0-3.4 2.5Z"/>
  <path fill="#E8FFF1" d="M43.8 74.2a7 7 0 1 0 0 14 7 7 0 0 0 0-14Zm40.4 0a7 7 0 1 0 0 14 7 7 0 0 0 0-14Z"/>
  <path fill="#082019" d="M43.8 78.8a2.4 2.4 0 1 0 0 4.8 2.4 2.4 0 0 0 0-4.8Zm40.4 0a2.4 2.4 0 1 0 0 4.8 2.4 2.4 0 0 0 0-4.8Z"/>
  <path d="M39 34h50" stroke="#B9FBCB" stroke-width="5" stroke-linecap="round"/>
  <path d="M29 62h-8m86 0h-8" stroke="#22C55E" stroke-width="5" stroke-linecap="round"/>
  <path d="M52 24h24" stroke="#60A5FA" stroke-width="4" stroke-linecap="round" opacity=".8"/>
</svg>
